<?xml version="1.0" encoding="utf-8"?>
<!-- Generator: Adobe Illustrator 21.0.0, SVG Export Plug-In . SVG Version: 6.00 Build 0)  -->
<svg version="1.1" id="Layer_1" xmlns="http://www.w3.org/2000/svg" xmlns:xlink="http://www.w3.org/1999/xlink" x="0px" y="0px"
	 viewBox="0 0 24 24" style="enable-background:new 0 0 24 24;" xml:space="preserve">
<g>
	<path d="M3.6,5h2.2c0.3,0,0.5,0.2,0.5,0.5V10c0,0.3,0.2,0.5,0.5,0.5H9c0.3,0,0.5-0.2,0.5-0.5V5.5C9.5,5.2,9.7,5,10,5h2.2
		c0.3,0,0.5,0.2,0.5,0.5v13c0,0.3-0.2,0.5-0.5,0.5H10c-0.3,0-0.5-0.2-0.5-0.5v-4.6c0-0.3-0.2-0.5-0.5-0.5H6.8
		c-0.3,0-0.5,0.2-0.5,0.5v4.6c0,0.3-0.2,0.5-0.5,0.5H3.6c-0.3,0-0.5-0.2-0.5-0.5v-13C3.1,5.2,3.3,5,3.6,5z"/>
	<path d="M14.3,16.6h1.5c0.3,0,0.5-0.2,0.5-0.5V8.2c0-0.3-0.3-0.6-0.6-0.5l-1,0.3c-0.3,0.1-0.6-0.1-0.6-0.5V6.1
		c0-0.2,0.1-0.4,0.4-0.5L16.2,5c0,0,0.1,0,0.1,0h1.6c0.3,0,0.5,0.2,0.5,0.5v10.6c0,0.3,0.2,0.5,0.5,0.5h1.5c0.3,0,0.5,0.2,0.5,0.5
		v1.4c0,0.3-0.2,0.5-0.5,0.5h-6.1c-0.3,0-0.5-0.2-0.5-0.5v-1.4C13.8,16.8,14,16.6,14.3,16.6z"/>
</g>
</svg>
