<?xml version="1.0" encoding="utf-8"?>
<!-- Generator: Adobe Illustrator 21.0.0, SVG Export Plug-In . SVG Version: 6.00 Build 0)  -->
<svg version="1.1" id="Layer_1" xmlns="http://www.w3.org/2000/svg" xmlns:xlink="http://www.w3.org/1999/xlink" x="0px" y="0px"
	 viewBox="0 0 24 24" style="enable-background:new 0 0 24 24;" xml:space="preserve">
<g>
	<path d="M3.6,5h2.2c0.3,0,0.5,0.2,0.5,0.5V10c0,0.3,0.2,0.5,0.5,0.5H9c0.3,0,0.5-0.2,0.5-0.5V5.5C9.5,5.2,9.7,5,10,5h2.2
		c0.3,0,0.5,0.2,0.5,0.5v13c0,0.3-0.2,0.5-0.5,0.5H10c-0.3,0-0.5-0.2-0.5-0.5v-4.6c0-0.3-0.2-0.5-0.5-0.5H6.8
		c-0.3,0-0.5,0.2-0.5,0.5v4.6c0,0.3-0.2,0.5-0.5,0.5H3.6c-0.3,0-0.5-0.2-0.5-0.5v-13C3.1,5.2,3.3,5,3.6,5z"/>
</g>
<g>
	<path d="M16.8,16.6l3.6,0c0.3,0,0.5,0.2,0.5,0.5v1.4c0,0.3-0.2,0.5-0.5,0.5h-6.1c-0.3,0-0.5-0.2-0.5-0.5v-1.7
		c0-0.4,0.4-0.7,0.4-0.8L15,15c1.4-1.9,2.3-3.1,2.6-3.5c0.4-0.5,0.6-1,0.8-1.4s0.2-0.8,0.2-1.2c0-0.6-0.2-1.1-0.5-1.4
		c-0.3-0.3-0.7-0.5-1.3-0.5c-0.4,0-0.8,0.1-1.3,0.3c-0.5,0.2-0.7,0.3-0.9,0.5c-0.2,0.1-0.4,0.2-0.5,0.1C14,7.7,14,7.4,14,7.2
		c0-0.6,0-0.8,0-1.4c0.1-0.1,0.1-0.4,0.3-0.5c0.4-0.2,0.9-0.3,1.3-0.4c0.5-0.1,1-0.2,1.5-0.2c1.2,0,2.1,0.3,2.8,1
		c0.7,0.7,1,1.6,1,2.8c0,0.6-0.1,1.1-0.2,1.5c-0.1,0.5-0.4,1-0.8,1.6c-0.3,0.4-1,1.4-2.2,2.9c-0.4,0.6-0.8,1-1.1,1.4
		C16.4,16.3,16.6,16.6,16.8,16.6z"/>
</g>
</svg>
