<?xml version="1.0" encoding="utf-8"?>
<!-- Generator: Adobe Illustrator 21.0.0, SVG Export Plug-In . SVG Version: 6.00 Build 0)  -->
<svg version="1.1" id="Layer_1" xmlns="http://www.w3.org/2000/svg" xmlns:xlink="http://www.w3.org/1999/xlink" x="0px" y="0px"
	 viewBox="0 0 24 24" style="enable-background:new 0 0 24 24;" xml:space="preserve">
<g>
	<path d="M3.6,5h2.2c0.3,0,0.5,0.2,0.5,0.5V10c0,0.3,0.2,0.5,0.5,0.5H9c0.3,0,0.5-0.2,0.5-0.5V5.5C9.5,5.2,9.7,5,10,5h2.2
		c0.3,0,0.5,0.2,0.5,0.5v13c0,0.3-0.2,0.5-0.5,0.5H10c-0.3,0-0.5-0.2-0.5-0.5v-4.6c0-0.3-0.2-0.5-0.5-0.5H6.8
		c-0.3,0-0.5,0.2-0.5,0.5v4.6c0,0.3-0.2,0.5-0.5,0.5H3.6c-0.3,0-0.5-0.2-0.5-0.5v-13C3.1,5.2,3.3,5,3.6,5z"/>
</g>
<g>
	<path d="M16.9,12.7c0,0-1,0.2-1.2,0c-0.4-0.4-0.4-2,0-2.4c0.2-0.2,1.2,0,1.2,0c0.6,0,1-0.1,1.3-0.4s0.5-0.7,0.5-1.1
		c0-0.5-0.2-0.9-0.5-1.2s-0.7-0.4-1.3-0.4c-0.4,0-0.9,0.1-1.4,0.2c-0.5,0.1-0.9,0.3-1.1,0.4c-0.2,0.1-0.2,0-0.3,0
		C14,7.6,14,7.4,14,7.4c0,0,0-1.7,0-1.7c0.1-0.1,0.1-0.4,0.3-0.5c0.4-0.1,0.8-0.2,1.2-0.3c0.5-0.1,1-0.2,1.4-0.2
		c1.2,0,2.1,0.3,2.8,1c0.7,0.6,1,1.5,1,2.7c0,0.8-0.2,1.5-0.6,2c-0.4,0.5-0.9,0.9-1.6,1c0.8,0.2,1.4,0.6,1.8,1.2
		c0.4,0.6,0.6,1.4,0.6,2.5c0,1.4-0.3,2.4-1,3.1s-1.7,1.1-3,1.1c-0.6,0-1.1-0.1-1.7-0.2c-0.4-0.1-0.9-0.2-1.3-0.4
		c-0.2-0.1-0.3-0.3-0.3-0.5c0,0,0-1.9,0-1.9c0,0,0-0.1,0.1-0.2c0.1,0,0.1-0.1,0.2,0c0.2,0.1,0.7,0.3,1.2,0.5c0.5,0.1,1,0.2,1.7,0.2
		c0.6,0,1.1-0.2,1.4-0.5c0.4-0.3,0.5-0.8,0.5-1.4c0-0.7-0.2-1.3-0.5-1.7C18,12.9,17.5,12.7,16.9,12.7z"/>
</g>
</svg>
