<svg viewBox="0 0 24 24" xmlns="http://www.w3.org/2000/svg"><path d="M7 15.5v1c0 .3.2.5.5.5h9c.3 0 .5-.2.5-.5v-1c0-.3-.2-.5-.5-.5h-9c-.3 0-.5.2-.5.5zM3.5 21h17c.3 0 .5-.2.5-.5v-1c0-.3-.2-.5-.5-.5h-17c-.3 0-.5.2-.5.5v1c0 .3.2.5.5.5zm0-8h17c.3 0 .5-.2.5-.5v-1c0-.3-.2-.5-.5-.5h-17c-.3 0-.5.2-.5.5v1c0 .3.2.5.5.5zM7 7.5v1c0 .3.2.5.5.5h9c.3 0 .5-.2.5-.5v-1c0-.3-.2-.5-.5-.5h-9c-.3 0-.5.2-.5.5zm-4-4v1c0 .3.2.5.5.5h17c.3 0 .5-.2.5-.5v-1c0-.3-.2-.5-.5-.5h-17c-.3 0-.5.2-.5.5z"/><path d="M0 0h24v24H0z" fill="none"/></svg>