<svg viewBox="0 0 24 24" xmlns="http://www.w3.org/2000/svg"><path d="M3.5 21h17c.3 0 .5-.2.5-.5v-1c0-.3-.2-.5-.5-.5h-17c-.3 0-.5.2-.5.5v1c0 .3.2.5.5.5zM3 9.2v5.6c0 .4.5.7.9.4l2.8-2.8c.2-.2.2-.5 0-.7L3.9 8.9c-.4-.4-.9-.1-.9.3zm8.5 7.8h9c.3 0 .5-.2.5-.5v-1c0-.3-.2-.5-.5-.5h-9c-.3 0-.5.2-.5.5v1c0 .3.2.5.5.5zM3 3.5v1c0 .3.2.5.5.5h17c.3 0 .5-.2.5-.5v-1c0-.3-.2-.5-.5-.5h-17c-.3 0-.5.2-.5.5zM11.5 9h9c.3 0 .5-.2.5-.5v-1c0-.3-.2-.5-.5-.5h-9c-.3 0-.5.2-.5.5v1c0 .3.2.5.5.5zm0 4h9c.3 0 .5-.2.5-.5v-1c0-.3-.2-.5-.5-.5h-9c-.3 0-.5.2-.5.5v1c0 .3.2.5.5.5z"/><path d="M0 0h24v24H0z" fill="none"/></svg>