<svg viewBox="0 0 24 24" xmlns="http://www.w3.org/2000/svg"><path d="M11.5 17h9c.3 0 .5-.2.5-.5v-1c0-.3-.2-.5-.5-.5h-9c-.3 0-.5.2-.5.5v1c0 .3.2.5.5.5zm-8.1-4.6l2.8 2.8c.3.3.8 0 .8-.4V9.2c0-.4-.5-.7-.9-.4l-2.8 2.8c-.1.2-.1.6.1.8zm.1 8.6h17c.3 0 .5-.2.5-.5v-1c0-.3-.2-.5-.5-.5h-17c-.3 0-.5.2-.5.5v1c0 .3.2.5.5.5zM3 3.5v1c0 .3.2.5.5.5h17c.3 0 .5-.2.5-.5v-1c0-.3-.2-.5-.5-.5h-17c-.3 0-.5.2-.5.5zM11.5 9h9c.3 0 .5-.2.5-.5v-1c0-.3-.2-.5-.5-.5h-9c-.3 0-.5.2-.5.5v1c0 .3.2.5.5.5zm0 4h9c.3 0 .5-.2.5-.5v-1c0-.3-.2-.5-.5-.5h-9c-.3 0-.5.2-.5.5v1c0 .3.2.5.5.5z"/><path d="M0 0h24v24H0z" fill="none"/></svg>