<svg viewBox="0 0 24 24" xmlns="http://www.w3.org/2000/svg"><path d="M4 10.5c-.8 0-1.5.7-1.5 1.5s.7 1.5 1.5 1.5 1.5-.7 1.5-1.5-.7-1.5-1.5-1.5zm0-6c-.8 0-1.5.7-1.5 1.5S3.2 7.5 4 7.5 5.5 6.8 5.5 6 4.8 4.5 4 4.5zm0 12c-.8 0-1.5.7-1.5 1.5s.7 1.5 1.5 1.5 1.5-.7 1.5-1.5-.7-1.5-1.5-1.5zM7.5 19h13c.3 0 .5-.2.5-.5v-1c0-.3-.2-.5-.5-.5h-13c-.3 0-.5.2-.5.5v1c0 .3.2.5.5.5zm0-6h13c.3 0 .5-.2.5-.5v-1c0-.3-.2-.5-.5-.5h-13c-.3 0-.5.2-.5.5v1c0 .3.2.5.5.5zM7 5.5v1c0 .3.2.5.5.5h13c.3 0 .5-.2.5-.5v-1c0-.3-.2-.5-.5-.5h-13c-.3 0-.5.2-.5.5z"/><path d="M0 0h24v24H0z" fill="none"/></svg>